HIERARCHY
ROOT Hips
{
	OFFSET 0.00000 0.00000 0.00000
	CHANNELS 6 Xposition Yposition Zposition Zrotation Yrotation Xrotation 
	JOINT LHipJoint
	{
		OFFSET 0 0 0
		CHANNELS 3 Zrotation Yrotation Xrotation
		JOINT LeftHip
		{
			OFFSET 1.75344 -1.53157 0.77399
			CHANNELS 3 Zrotation Yrotation Xrotation
			JOINT LeftKnee
			{
				OFFSET 2.25415 -6.19323 0.00000
				CHANNELS 3 Zrotation Yrotation Xrotation
				JOINT LeftAnkle
				{
					OFFSET 2.30342 -6.32861 0.00000
					CHANNELS 3 Zrotation Yrotation Xrotation
					JOINT LeftToe
					{
						OFFSET 0.10958 -0.30108 1.49206
						CHANNELS 3 Zrotation Yrotation Xrotation
						End Site
						{
							OFFSET 0.00000 -0.00000 0.77783
						}
					}
				}
			}
		}
	}
	JOINT RHipJoint
	{
		OFFSET 0 0 0
		CHANNELS 3 Zrotation Yrotation Xrotation
		JOINT RightHip
		{
			OFFSET -1.81912 -1.53156 0.77399
			CHANNELS 3 Zrotation Yrotation Xrotation
			JOINT RightKnee
			{
				OFFSET -2.22882 -6.12365 0.00000
				CHANNELS 3 Zrotation Yrotation Xrotation
				JOINT RightAnkle
				{
					OFFSET -2.21943 -6.09785 0.00000
					CHANNELS 3 Zrotation Yrotation Xrotation
					JOINT RightToe
					{
						OFFSET -0.18931 -0.52012 1.59379
						CHANNELS 3 Zrotation Yrotation Xrotation
						End Site
						{
							OFFSET -0.00000 -0.00000 0.84686
						}
					}
				}
			}
		}
	}
	JOINT lowerback
	{
		OFFSET 0 0 0
		CHANNELS 3 Zrotation Yrotation Xrotation
		JOINT Chest
		{
			OFFSET -0.00200 1.66634 -0.14248
			CHANNELS 3 Zrotation Yrotation Xrotation
			JOINT Chest2
			{
				OFFSET -0.00875 1.64542 0.09514
				CHANNELS 3 Zrotation Yrotation Xrotation
				JOINT lowerneck
				{
					OFFSET 0 0 0
					CHANNELS 3 Zrotation Yrotation Xrotation
					JOINT Neck
					{
						OFFSET 0.02257 1.59605 0.00839
						CHANNELS 3 Zrotation Yrotation Xrotation
						JOINT Head
						{
							OFFSET -0.10214 1.57530 -0.23335
							CHANNELS 3 Zrotation Yrotation Xrotation
							End Site
							{
								OFFSET -0.03588 1.60717 -0.08062
							}
						}
					}
				}
				JOINT LeftCollar
				{
					OFFSET 0 0 0
					CHANNELS 3 Zrotation Yrotation Xrotation
					JOINT LeftShoulder
					{
						OFFSET 2.54983 1.10186 0.40078
CHANNELS 3 Zrotation Xrotation Yrotation
						JOINT LeftElbow
						{
OFFSET 0 -4.288400 0.000000
CHANNELS 3 Zrotation Xrotation Yrotation
							JOINT LeftWrist
							{
OFFSET 0 -3.065520 -0.000000
CHANNELS 3 Zrotation Xrotation Yrotation
								JOINT lhand
								{
									OFFSET 0 0 0
CHANNELS 3 Zrotation Xrotation Yrotation
									JOINT LFingers
									{
OFFSET 0 -0.753040 0.000000
CHANNELS 3 Zrotation Xrotation Yrotation
										End Site
										{
OFFSET 0 -0.607120 0.000000
										}
									}
								}
								JOINT LThumb
								{
OFFSET 0 0.000000 0.000000
CHANNELS 3 Zrotation Xrotation Yrotation
									End Site
									{
OFFSET 0 -0.616390 0.616390
									}
								}
							}
						}
					}
				}
				JOINT RightCollar
				{
					OFFSET 0 0 0
					CHANNELS 3 Zrotation Yrotation Xrotation
					JOINT RightShoulder
					{
						OFFSET -2.60909 1.35448 0.21802
CHANNELS 3 Zrotation Xrotation Yrotation
						JOINT RightElbow
						{
OFFSET 0 -4.521720 -0.000000
CHANNELS 3 Zrotation Xrotation Yrotation
							JOINT RightWrist
							{
OFFSET 0 -2.891400 0.000000
CHANNELS 3 Zrotation Xrotation Yrotation
								JOINT rhand
								{
									OFFSET 0 0 0
CHANNELS 3 Zrotation Xrotation Yrotation
									JOINT RFingers
									{
OFFSET 0 -0.680540 0.000000
CHANNELS 3 Zrotation Xrotation Yrotation
										End Site
										{
OFFSET 0 -0.548670 0.000000
										}
									}
								}
								JOINT RThumb
								{
OFFSET 0 0.000000 0.000000
CHANNELS 3 Zrotation Xrotation Yrotation
									End Site
									{
OFFSET 0 -0.557050 0.557050
									}
								}
							}
						}
					}
				}
			}
		}
	}
}
MOTION
Frames: 8
Frame Time: 0.008333333333333333
6.885300 15.103500 41.200100 -179.751000 15.479600 176.379000 0.000000 0.000000 0.000000 -28.314200 -19.661700 7.267900 2.299300 9.463400 27.256000 2.447700 11.898400 -35.675800 0.495100 -4.511300 -12.519600 0.000000 0.000000 0.000000 24.252700 25.156200 5.766500 -2.153800 -9.179400 26.358200 -0.843200 -18.120800 -31.762600 -0.000100 0.071000 -0.195100 -2.282400 -1.441600 3.355900 1.309300 -1.481100 -8.732700 2.830700 -0.217900 -11.115100 -4.910100 -4.165500 -12.809100 9.884600 -5.617800 33.408900 4.249300 -0.703400 13.957900 0.000000 0.000000 0.000000 44.953300 -39.889300 -23.072500 22.774500 -33.841300 7.012300 5.906600 19.764200 31.884000 0.000000 0.000000 0.000000 -7.125000 0.000000 0.000000 -14.532500 -1.150100 -15.318800 0.000000 0.000000 0.000000 -61.379400 -47.546600 38.081000 -18.039100 -28.207200 -4.567700 -46.077400 50.790400 72.788300 0.000000 0.000000 0.000000 7.125000 0.000000 -0.000000 -169.814700 17.962700 6.653900
6.859222 15.096419 41.198546 -179.458220 15.953129 176.236691 0.000000 0.000000 0.000000 -28.728024 -20.621543 8.226644 2.287628 9.441003 27.184919 2.504064 12.597663 -36.452368 0.553057 -4.735789 -13.161593 0.000000 0.000000 0.000000 24.530495 25.119542 5.910893 -2.158996 -9.189661 26.390378 -0.837838 -17.955134 -31.549093 -0.001362 0.239980 -0.659335 -2.121725 -1.384405 2.950116 1.202489 -1.376387 -8.778893 2.601678 -0.184477 -10.932501 -4.924548 -4.305546 -13.650162 9.785083 -5.916009 33.096574 4.133163 -0.891708 14.035353 0.000000 0.000000 0.000000 45.140877 -44.701026 -29.892329 16.464607 -26.146433 3.848533 11.417853 11.141741 30.438104 0.000000 0.000000 0.000000 -7.125000 0.000000 0.000000 -11.343373 -0.431871 -11.658813 0.000000 0.000000 0.000000 -54.574204 -48.745041 30.294302 -15.115393 -24.301173 -3.276621 -11.457844 27.677037 55.193024 0.000000 0.000000 0.000000 7.125000 0.000000 0.000000 -13.640241 -6.682449 -167.676192
6.839685 15.091597 41.194273 -179.588878 16.390051 175.972265 0.000000 0.000000 0.000000 -29.681441 -21.676024 9.337493 2.260974 9.389777 27.022300 2.536688 13.700583 -37.392148 0.426567 -4.191523 -11.616215 0.000000 0.000000 0.000000 24.283293 24.932954 5.850295 -2.188200 -9.247523 26.572733 -0.893878 -17.453482 -31.369015 -0.000347 0.072156 -0.198135 -2.684754 -1.386897 2.620970 1.288112 -1.397175 -8.842607 3.003438 -0.137682 -10.791256 -5.429167 -4.326985 -14.380648 9.583850 -5.892299 32.522272 4.091347 -1.050310 13.948460 0.000000 0.000000 0.000000 42.826428 -45.038728 -27.368789 15.664142 -25.063096 3.502486 11.316749 14.875820 31.829654 0.000000 0.000000 0.000000 -7.125000 0.000000 0.000000 -11.502096 -1.784958 -12.098297 0.000000 0.000000 0.000000 -51.671818 -49.507934 28.075766 -14.135262 -22.927721 -2.880655 -12.145126 32.754122 55.386166 0.000000 0.000000 0.000000 7.125000 0.000000 0.000000 -13.397303 -6.346588 -167.821698
6.814748 15.082344 41.192160 -179.188367 16.994096 175.805746 0.000000 0.000000 0.000000 -29.733226 -21.882707 9.734263 2.315352 9.494141 27.353675 2.589483 14.096388 -37.939781 0.432981 -4.222573 -11.703778 0.000000 0.000000 0.000000 24.708681 24.917229 6.171322 -2.144411 -9.160615 26.298971 -0.835057 -17.373512 -30.904757 -0.006869 0.533366 -1.465557 -2.401455 -1.377825 2.628461 1.277415 -1.353517 -8.925819 2.829108 -0.134570 -10.898642 -5.736969 -4.271674 -15.275888 9.495930 -5.819076 32.081873 4.081149 -1.129189 13.951914 0.000000 0.000000 0.000000 41.098406 -45.407094 -25.008622 15.184612 -24.402672 3.301878 11.127965 18.565382 32.338604 0.000000 0.000000 0.000000 -7.125000 0.000000 0.000000 -11.647103 -2.256975 -12.350781 0.000000 0.000000 0.000000 -50.314413 -49.834987 29.403855 -14.096698 -22.872843 -2.865579 -10.158836 30.421608 50.787911 0.000000 0.000000 0.000000 7.125000 0.000000 0.000000 -13.878577 -11.078189 -168.701263
6.793270 15.071182 41.197935 -179.261776 17.565117 175.414052 0.000000 0.000000 0.000000 -30.205676 -21.789793 10.310760 2.298446 9.461851 27.250958 2.612226 14.433724 -38.294685 0.472665 -4.409296 -12.231111 0.000000 0.000000 0.000000 24.716743 25.079270 6.434206 -2.175525 -9.222403 26.493663 -0.836230 -17.067003 -30.584359 -0.007583 0.561116 -1.541928 -4.319495 -1.292167 4.253886 2.250419 -1.307452 -9.640385 5.024311 0.220584 -12.695077 -6.954419 -4.362295 -15.990985 8.803296 -5.487407 31.761620 4.030528 -1.297181 13.949327 0.000000 0.000000 0.000000 36.837085 -45.338161 -24.230670 14.578560 -23.555694 3.055528 11.286112 21.359282 33.184614 0.000000 0.000000 0.000000 -7.125000 0.000000 0.000000 -11.627317 -3.108948 -12.495352 0.000000 0.000000 0.000000 -49.811043 -49.344816 31.776662 -14.318573 -23.188299 -2.952390 -8.929728 29.527786 53.487076 0.000000 0.000000 0.000000 7.125000 0.000000 0.000000 -14.517680 -8.830060 -167.462905
6.772299 15.076896 41.200672 -179.523965 17.778343 175.425893 0.000000 0.000000 0.000000 -30.571180 -21.856096 10.322506 2.263973 9.395556 27.040704 2.488024 15.039356 -38.124812 0.502134 -4.542787 -12.608968 0.000000 0.000000 0.000000 24.208149 25.054270 6.069352 -2.214132 -9.298473 26.733510 -0.887014 -16.673284 -30.502620 -0.014513 0.776391 -2.133794 -5.190098 -1.373319 4.532553 2.345827 -1.479777 -9.971742 5.663954 0.277054 -13.229207 -7.615835 -4.348084 -16.795511 8.588967 -5.323076 30.813781 4.016851 -1.426120 13.708425 0.000000 0.000000 0.000000 34.283170 -45.776512 -21.449099 14.144817 -22.941373 2.884337 11.198551 26.281718 34.612227 0.000000 0.000000 0.000000 -7.125000 0.000000 0.000000 -11.799541 -4.492899 -12.956445 0.000000 0.000000 0.000000 -48.564836 -49.481882 32.468598 -14.331635 -23.206775 -2.957551 -8.684530 29.371800 52.463250 0.000000 0.000000 0.000000 7.125000 0.000000 0.000000 -14.574128 -9.840324 -167.716017
6.747223 15.085710 41.222602 -179.194694 18.078534 175.633427 0.000000 0.000000 0.000000 -30.204474 -21.937748 9.983755 2.298723 9.462437 27.252932 2.569823 14.826394 -38.371220 0.575550 -4.858100 -13.504366 0.000000 0.000000 0.000000 24.260690 24.938162 5.719166 -2.164221 -9.200098 26.423385 -0.804517 -16.355462 -29.613714 -0.011412 0.689304 -1.894273 -5.500666 -1.346410 5.205493 2.584306 -1.467760 -10.206902 6.137739 0.380591 -13.934707 -8.259249 -4.372917 -17.725014 8.423746 -5.228774 29.417440 3.987815 -1.587923 13.317995 0.000000 0.000000 0.000000 32.296221 -46.233580 -19.686953 13.788286 -22.431217 2.746772 11.852588 28.634623 35.568170 0.000000 0.000000 0.000000 -7.125000 0.000000 0.000000 -11.537263 -5.527995 -12.847213 0.000000 0.000000 0.000000 -48.211698 -49.603159 32.779405 -14.345254 -23.226171 -2.962888 -8.572124 28.947585 50.921197 0.000000 0.000000 0.000000 7.125000 0.000000 0.000000 -14.569764 -11.309390 -168.171402
6.723345 15.080330 41.237762 -178.798514 18.685375 175.620032 0.000000 0.000000 0.000000 -30.028581 -22.032235 10.024184 2.350013 9.560004 27.563346 2.646336 15.147428 -38.979231 0.559415 -4.790775 -13.312636 0.000000 0.000000 0.000000 24.779045 25.472811 6.066954 -2.119146 -9.109908 26.139811 -0.733534 -16.546699 -29.329689 -0.017878 0.864094 -2.374862 -5.621738 -1.355127 6.011993 2.851494 -1.490620 -10.437055 6.554045 0.457025 -14.724468 -8.017043 -4.163903 -18.291719 7.367736 -4.775642 28.162610 3.528809 -1.589957 12.826812 0.000000 0.000000 0.000000 31.049096 -46.019496 -17.255014 13.494804 -22.007781 2.635792 11.539843 31.905542 35.609662 0.000000 0.000000 0.000000 -7.125000 0.000000 0.000000 -11.709470 -5.519629 -13.045356 0.000000 0.000000 0.000000 -47.034659 -49.584871 32.763616 -14.240195 -23.077114 -2.921573 -6.206984 28.019926 50.805861 0.000000 0.000000 0.000000 7.125000 0.000000 0.000000 -15.591943 -11.929413 -167.484111
